name analog
datacolumns 19
datarows 66
range 0.3315000000000001 0.3640000000000001
endheader
time	ground_force_vx	ground_force_vy	ground_force_vz	ground_force_px	ground_force_py	ground_force_pz	l_ground_force_vx	l_ground_force_vy	l_ground_force_vz	l_ground_force_px	l_ground_force_py	l_ground_force_pz	ground_torque_x	ground_torque_y	ground_torque_z	l_ground_torque_x	l_ground_torque_y	l_ground_torque_z
0.3315000000000001	-0.0	-0.0	-0.0	-4.748485565185547	-13.993473052978516	-856.7340698242188	-0.0	-0.0	-0.0	-0.0	-0.0	-0.0	-0.0	-0.0	-0.0	-0.0	-0.0	-0.0
0.3320000000000001	-0.0	-0.0	-0.0	-3.0857913494110107	-14.770689010620115	-858.0188598632812	-0.0	-0.0	-0.0	-0.0	-0.0	-0.0	-0.0	-0.0	-0.0	-0.0	-0.0	-0.0
0.3325000000000001	-0.0	-0.0	-0.0	-2.14105224609375	-15.419559478759766	-859.5140380859375	-0.0	-0.0	-0.0	-0.0	-0.0	-0.0	-0.0	-0.0	-0.0	-0.0	-0.0	-0.0
0.3330000000000001	-0.0	-0.0	-0.0	-2.2511799335479736	-16.788070678710938	-860.2634887695312	-0.0	-0.0	-0.0	-0.0	-0.0	-0.0	-0.0	-0.0	-0.0	-0.0	-0.0	-0.0
0.3335000000000001	-0.0	-0.0	-0.0	-2.608189821243286	-17.54302215576172	-863.2338256835938	-0.0	-0.0	-0.0	-0.0	-0.0	-0.0	-0.0	-0.0	-0.0	-0.0	-0.0	-0.0
0.3340000000000001	-0.0	-0.0	-0.0	-3.5994715690612797	-18.413183212280277	-863.58642578125	-0.0	-0.0	-0.0	-0.0	-0.0	-0.0	-0.0	-0.0	-0.0	-0.0	-0.0	-0.0
0.3345000000000001	-0.0	-0.0	-0.0	-5.189608097076416	-19.209190368652344	-861.6129150390625	-0.0	-0.0	-0.0	-0.0	-0.0	-0.0	-0.0	-0.0	-0.0	-0.0	-0.0	-0.0
0.3350000000000001	-0.0	-0.0	-0.0	-6.542906761169434	-18.84345245361328	-860.6040649414062	-0.0	-0.0	-0.0	-0.0	-0.0	-0.0	-0.0	-0.0	-0.0	-0.0	-0.0	-0.0
0.3355000000000001	-0.0	-0.0	-0.0	-9.077567100524902	-18.50888442993164	-859.146484375	-0.0	-0.0	-0.0	-0.0	-0.0	-0.0	-0.0	-0.0	-0.0	-0.0	-0.0	-0.0
0.3360000000000001	-0.0	-0.0	-0.0	-10.891657829284668	-17.729907989501953	-856.40185546875	-0.0	-0.0	-0.0	-0.0	-0.0	-0.0	-0.0	-0.0	-0.0	-0.0	-0.0	-0.0
0.3365000000000001	-0.0	-0.0	-0.0	-13.552563667297363	-16.98676872253418	-854.1068115234375	-0.0	-0.0	-0.0	-0.0	-0.0	-0.0	-0.0	-0.0	-0.0	-0.0	-0.0	-0.0
0.3370000000000001	-0.0	-0.0	-0.0	-14.742227554321287	-17.083581924438477	-852.5180053710938	-0.0	-0.0	-0.0	-0.0	-0.0	-0.0	-0.0	-0.0	-0.0	-0.0	-0.0	-0.0
0.3375000000000001	-0.0	-0.0	-0.0	-16.667734146118164	-17.30591583251953	-851.8382568359375	-0.0	-0.0	-0.0	-0.0	-0.0	-0.0	-0.0	-0.0	-0.0	-0.0	-0.0	-0.0
0.3380000000000001	-0.0	-0.0	-0.0	-17.617900848388672	-17.975414276123047	-852.1658935546875	-0.0	-0.0	-0.0	-0.0	-0.0	-0.0	-0.0	-0.0	-0.0	-0.0	-0.0	-0.0
0.3385000000000001	-0.0	-0.0	-0.0	-18.50962257385254	-19.49088478088379	-852.4281616210938	-0.0	-0.0	-0.0	-0.0	-0.0	-0.0	-0.0	-0.0	-0.0	-0.0	-0.0	-0.0
0.3390000000000001	-0.0	-0.0	-0.0	-18.067073822021484	-20.43927574157715	-851.2557373046875	-0.0	-0.0	-0.0	-0.0	-0.0	-0.0	-0.0	-0.0	-0.0	-0.0	-0.0	-0.0
0.3395000000000001	-0.0	-0.0	-0.0	-17.66836929321289	-21.45228385925293	-851.7213134765625	-0.0	-0.0	-0.0	-0.0	-0.0	-0.0	-0.0	-0.0	-0.0	-0.0	-0.0	-0.0
0.3400000000000001	-0.0	-0.0	-0.0	-16.170772552490234	-23.16419792175293	-851.5720825195312	-0.0	-0.0	-0.0	-0.0	-0.0	-0.0	-0.0	-0.0	-0.0	-0.0	-0.0	-0.0
0.3405000000000001	-0.0	-0.0	-0.0	-15.207192420959473	-24.754369735717773	-851.6660766601562	-0.0	-0.0	-0.0	-0.0	-0.0	-0.0	-0.0	-0.0	-0.0	-0.0	-0.0	-0.0
0.3410000000000001	-0.0	-0.0	-0.0	-13.086562156677246	-25.936946868896484	-851.7747192382812	-0.0	-0.0	-0.0	-0.0	-0.0	-0.0	-0.0	-0.0	-0.0	-0.0	-0.0	-0.0
0.3415000000000001	-0.0	-0.0	-0.0	-12.121976852416992	-27.006511688232425	-849.9965209960938	-0.0	-0.0	-0.0	-0.0	-0.0	-0.0	-0.0	-0.0	-0.0	-0.0	-0.0	-0.0
0.3420000000000001	-0.0	-0.0	-0.0	-10.83475112915039	-27.160329818725582	-849.6009521484375	-0.0	-0.0	-0.0	-0.0	-0.0	-0.0	-0.0	-0.0	-0.0	-0.0	-0.0	-0.0
0.3425000000000001	-0.0	-0.0	-0.0	-10.004876136779783	-27.43887710571289	-844.6484375	-0.0	-0.0	-0.0	-0.0	-0.0	-0.0	-0.0	-0.0	-0.0	-0.0	-0.0	-0.0
0.3430000000000001	-0.0	-0.0	-0.0	-9.188682556152344	-26.5856876373291	-841.7261962890625	-0.0	-0.0	-0.0	-0.0	-0.0	-0.0	-0.0	-0.0	-0.0	-0.0	-0.0	-0.0
0.3435000000000001	-0.0	-0.0	-0.0	-9.201716423034668	-25.52934837341309	-840.11181640625	-0.0	-0.0	-0.0	-0.0	-0.0	-0.0	-0.0	-0.0	-0.0	-0.0	-0.0	-0.0
0.3440000000000001	-0.0	-0.0	-0.0	-8.462091445922852	-25.1857852935791	-840.417236328125	-0.0	-0.0	-0.0	-0.0	-0.0	-0.0	-0.0	-0.0	-0.0	-0.0	-0.0	-0.0
0.3445000000000001	-0.0	-0.0	-0.0	-7.812267780303955	-24.752769470214844	-838.0455322265625	-0.0	-0.0	-0.0	-0.0	-0.0	-0.0	-0.0	-0.0	-0.0	-0.0	-0.0	-0.0
0.3450000000000001	-0.0	-0.0	-0.0	-6.410157203674316	-24.21820831298828	-836.6332397460938	-0.0	-0.0	-0.0	-0.0	-0.0	-0.0	-0.0	-0.0	-0.0	-0.0	-0.0	-0.0
0.3455000000000001	-0.0	-0.0	-0.0	-5.072466850280762	-22.53821182250977	-833.2040405273438	-0.0	-0.0	-0.0	-0.0	-0.0	-0.0	-0.0	-0.0	-0.0	-0.0	-0.0	-0.0
0.3460000000000001	-0.0	-0.0	-0.0	-4.422109127044678	-21.352914810180664	-828.76123046875	-0.0	-0.0	-0.0	-0.0	-0.0	-0.0	-0.0	-0.0	-0.0	-0.0	-0.0	-0.0
0.3465000000000001	-0.0	-0.0	-0.0	-4.024997234344482	-19.4688720703125	-825.9423828125	-0.0	-0.0	-0.0	-0.0	-0.0	-0.0	-0.0	-0.0	-0.0	-0.0	-0.0	-0.0
0.3470000000000001	-0.0	-0.0	-0.0	-3.669750928878784	-17.876699447631836	-824.5704956054688	-0.0	-0.0	-0.0	-0.0	-0.0	-0.0	-0.0	-0.0	-0.0	-0.0	-0.0	-0.0
0.3475000000000001	-0.0	-0.0	-0.0	-3.8360519409179688	-15.968975067138672	-821.3436889648438	-0.0	-0.0	-0.0	-0.0	-0.0	-0.0	-0.0	-0.0	-0.0	-0.0	-0.0	-0.0
0.3480000000000001	-0.0	-0.0	-0.0	-4.588404178619385	-14.31440544128418	-819.3304443359375	-0.0	-0.0	-0.0	-0.0	-0.0	-0.0	-0.0	-0.0	-0.0	-0.0	-0.0	-0.0
0.3485000000000001	-0.0	-0.0	-0.0	-4.844394207000732	-12.582680702209473	-813.7265625	-0.0	-0.0	-0.0	-0.0	-0.0	-0.0	-0.0	-0.0	-0.0	-0.0	-0.0	-0.0
0.3490000000000001	-0.0	-0.0	-0.0	-5.70947265625	-10.889524459838867	-809.2269897460938	-0.0	-0.0	-0.0	-0.0	-0.0	-0.0	-0.0	-0.0	-0.0	-0.0	-0.0	-0.0
0.3495000000000001	-0.0	-0.0	-0.0	-5.185689449310303	-9.680805206298828	-806.9077758789062	-0.0	-0.0	-0.0	-0.0	-0.0	-0.0	-0.0	-0.0	-0.0	-0.0	-0.0	-0.0
0.3500000000000001	-0.0	-0.0	-0.0	-4.783391952514648	-9.347376823425291	-803.0218505859375	-0.0	-0.0	-0.0	-0.0	-0.0	-0.0	-0.0	-0.0	-0.0	-0.0	-0.0	-0.0
0.3505000000000001	-0.0	-0.0	-0.0	-3.8638601303100586	-9.53695297241211	-800.217041015625	-0.0	-0.0	-0.0	-0.0	-0.0	-0.0	-0.0	-0.0	-0.0	-0.0	-0.0	-0.0
0.3510000000000001	-0.0	-0.0	-0.0	-2.9940860271453857	-8.879865646362305	-799.5555419921875	-0.0	-0.0	-0.0	-0.0	-0.0	-0.0	-0.0	-0.0	-0.0	-0.0	-0.0	-0.0
0.3515000000000001	-0.0	-0.0	-0.0	-1.5557175874710083	-8.456465721130371	-795.472900390625	-0.0	-0.0	-0.0	-0.0	-0.0	-0.0	-0.0	-0.0	-0.0	-0.0	-0.0	-0.0
0.3520000000000001	-0.0	-0.0	-0.0	-0.5961024761199951	-7.515299320220947	-792.1663818359375	-0.0	-0.0	-0.0	-0.0	-0.0	-0.0	-0.0	-0.0	-0.0	-0.0	-0.0	-0.0
0.3525000000000001	-0.0	-0.0	-0.0	-0.0998786762356758	-7.034041404724121	-789.0327758789062	-0.0	-0.0	-0.0	-0.0	-0.0	-0.0	-0.0	-0.0	-0.0	-0.0	-0.0	-0.0
0.3530000000000001	-0.0	-0.0	-0.0	0.4882162809371948	-6.645480632781982	-785.5750122070312	-0.0	-0.0	-0.0	-0.0	-0.0	-0.0	-0.0	-0.0	-0.0	-0.0	-0.0	-0.0
0.3535000000000001	-0.0	-0.0	-0.0	1.9626312255859373	-6.496098041534424	-782.5733642578125	-0.0	-0.0	-0.0	-0.0	-0.0	-0.0	-0.0	-0.0	-0.0	-0.0	-0.0	-0.0
0.3540000000000001	-0.0	-0.0	-0.0	2.7844412326812744	-5.704345703125	-779.896240234375	-0.0	-0.0	-0.0	-0.0	-0.0	-0.0	-0.0	-0.0	-0.0	-0.0	-0.0	-0.0
0.3545000000000001	-0.0	-0.0	-0.0	4.361166000366211	-5.20905876159668	-777.5457153320312	-0.0	-0.0	-0.0	-0.0	-0.0	-0.0	-0.0	-0.0	-0.0	-0.0	-0.0	-0.0
0.3550000000000001	-0.0	-0.0	-0.0	5.798683166503906	-3.545196771621704	-775.8192749023438	-0.0	-0.0	-0.0	-0.0	-0.0	-0.0	-0.0	-0.0	-0.0	-0.0	-0.0	-0.0
0.3555000000000001	-0.0	-0.0	-0.0	7.10706090927124	-2.2183854579925537	-776.1325073242188	-0.0	-0.0	-0.0	-0.0	-0.0	-0.0	-0.0	-0.0	-0.0	-0.0	-0.0	-0.0
0.3560000000000001	-0.0	-0.0	-0.0	8.217824935913086	-0.4755957126617431	-775.6604614257812	-0.0	-0.0	-0.0	-0.0	-0.0	-0.0	-0.0	-0.0	-0.0	-0.0	-0.0	-0.0
0.3565000000000001	-0.0	-0.0	-0.0	8.940254211425781	1.5344032049179075	-774.9583129882812	-0.0	-0.0	-0.0	-0.0	-0.0	-0.0	-0.0	-0.0	-0.0	-0.0	-0.0	-0.0
0.3570000000000001	-0.0	-0.0	-0.0	9.15831470489502	3.138530731201172	-771.4652099609375	-0.0	-0.0	-0.0	-0.0	-0.0	-0.0	-0.0	-0.0	-0.0	-0.0	-0.0	-0.0
0.3575000000000001	-0.0	-0.0	-0.0	8.564208984375	4.942050933837891	-769.1421508789062	-0.0	-0.0	-0.0	-0.0	-0.0	-0.0	-0.0	-0.0	-0.0	-0.0	-0.0	-0.0
0.3580000000000001	-0.0	-0.0	-0.0	7.832071304321289	6.853822231292725	-764.7929077148438	-0.0	-0.0	-0.0	-0.0	-0.0	-0.0	-0.0	-0.0	-0.0	-0.0	-0.0	-0.0
0.3585000000000001	-0.0	-0.0	-0.0	7.078586101531982	8.90029525756836	-762.0902709960938	-0.0	-0.0	-0.0	-0.0	-0.0	-0.0	-0.0	-0.0	-0.0	-0.0	-0.0	-0.0
0.3590000000000001	-0.0	-0.0	-0.0	6.106435298919678	11.190345764160156	-759.3013305664062	-0.0	-0.0	-0.0	-0.0	-0.0	-0.0	-0.0	-0.0	-0.0	-0.0	-0.0	-0.0
0.3595000000000001	-0.0	-0.0	-0.0	5.830036640167236	13.921996116638184	-756.6705932617188	-0.0	-0.0	-0.0	-0.0	-0.0	-0.0	-0.0	-0.0	-0.0	-0.0	-0.0	-0.0
0.3600000000000001	-0.0	-0.0	-0.0	5.490799903869629	15.290213584899902	-752.3422241210938	-0.0	-0.0	-0.0	-0.0	-0.0	-0.0	-0.0	-0.0	-0.0	-0.0	-0.0	-0.0
0.3605000000000001	-0.0	-0.0	-0.0	6.429276943206787	15.629569053649902	-745.5628662109375	-0.0	-0.0	-0.0	-0.0	-0.0	-0.0	-0.0	-0.0	-0.0	-0.0	-0.0	-0.0
0.3610000000000001	-0.0	-0.0	-0.0	7.104898929595947	15.143733978271484	-743.7634887695312	-0.0	-0.0	-0.0	-0.0	-0.0	-0.0	-0.0	-0.0	-0.0	-0.0	-0.0	-0.0
0.3615000000000001	-0.0	-0.0	-0.0	7.7279839515686035	14.42247486114502	-744.2490844726562	-0.0	-0.0	-0.0	-0.0	-0.0	-0.0	-0.0	-0.0	-0.0	-0.0	-0.0	-0.0
0.3620000000000001	-0.0	-0.0	-0.0	9.86185073852539	13.491000175476074	-742.4798583984375	-0.0	-0.0	-0.0	-0.0	-0.0	-0.0	-0.0	-0.0	-0.0	-0.0	-0.0	-0.0
0.3625000000000001	-0.0	-0.0	-0.0	11.297205924987791	11.635539054870604	-742.4160766601562	-0.0	-0.0	-0.0	-0.0	-0.0	-0.0	-0.0	-0.0	-0.0	-0.0	-0.0	-0.0
0.3630000000000001	-0.0	-0.0	-0.0	12.95136260986328	10.590692520141602	-742.2901611328125	-0.0	-0.0	-0.0	-0.0	-0.0	-0.0	-0.0	-0.0	-0.0	-0.0	-0.0	-0.0
0.3635000000000001	-0.0	-0.0	-0.0	14.647884368896484	9.697868347167969	-740.6799926757812	-0.0	-0.0	-0.0	-0.0	-0.0	-0.0	-0.0	-0.0	-0.0	-0.0	-0.0	-0.0
0.3640000000000001	-0.0	-0.0	-0.0	15.652615547180176	9.64903450012207	-739.0441284179688	-0.0	-0.0	-0.0	-0.0	-0.0	-0.0	-0.0	-0.0	-0.0	-0.0	-0.0	-0.0
